<svg width="79" height="40" viewBox="0 0 79 40" fill="none" xmlns="http://www.w3.org/2000/svg">
<path fill-rule="evenodd" clip-rule="evenodd" d="M70.3101 0H8.68738C6.38319 0.000444016 4.17353 0.917251 2.54437 2.54878C0.915222 4.18031 -4.26727e-08 6.39295 0 8.70006L0 31.2991C-1.06678e-08 33.6066 0.915425 35.8196 2.54491 37.4513C4.1744 39.083 6.3845 39.9998 8.68906 40H70.3118C72.6162 39.9996 74.8261 39.0827 76.4554 37.451C78.0847 35.8193 79 33.6064 79 31.2991V8.70006C78.9998 6.39258 78.0841 4.17969 76.4545 2.54814C74.8248 0.916584 72.6147 -1.06813e-08 70.3101 0ZM76.9423 31.7704C76.9421 33.4371 76.2807 35.0355 75.1036 36.2139C73.9264 37.3923 72.33 38.0544 70.6655 38.0544H8.34373C6.67924 38.0544 5.08292 37.3923 3.90594 36.2139C2.72897 35.0354 2.06775 33.437 2.06775 31.7704V8.27476C2.06764 7.44948 2.22989 6.63225 2.54524 5.86975C2.86059 5.10725 3.32286 4.41442 3.90565 3.83081C4.48844 3.24721 5.18033 2.78426 5.94182 2.46841C6.70332 2.15256 7.51949 1.99 8.34373 1.99H70.6655C72.3302 1.99 73.9267 2.65214 75.1038 3.83076C76.281 5.00938 76.9423 6.60794 76.9423 8.27476V31.7704Z" fill="white"/>
<path d="M31.2119 28.2584H28.3239V18.8367L23.2444 27.7837C23.1259 28.0052 22.9435 28.1858 22.721 28.302C22.4984 28.4195 22.2502 28.4802 21.9986 28.4786C21.7541 28.48 21.5133 28.4192 21.2987 28.302C21.081 28.1833 20.903 28.0031 20.787 27.7837L15.6866 18.8342V28.2584H12.8179V13.6587C12.8153 13.3405 12.9181 13.0303 13.1102 12.7768C13.3023 12.5232 13.5729 12.3405 13.8797 12.2573C14.0313 12.2208 14.1875 12.2078 14.343 12.2187C14.4959 12.2296 14.6464 12.2631 14.7895 12.3184C14.9318 12.373 15.0638 12.4514 15.1799 12.5503C15.2996 12.6511 15.4003 12.7724 15.4776 12.9086L21.9994 24.2634L28.5212 12.9086C28.6815 12.6372 28.9278 12.4274 29.221 12.3125C29.5178 12.1954 29.844 12.176 30.1525 12.2573C30.456 12.3423 30.7232 12.5247 30.9134 12.7763C31.1098 13.0281 31.2148 13.3393 31.211 13.6587L31.2119 28.2584Z" fill="white"/>
<path d="M50.2656 12.4339L42.7823 27.695C42.6652 27.9304 42.4836 28.1275 42.2588 28.2634C42.029 28.4063 41.7634 28.4809 41.4929 28.4786C41.2269 28.4793 40.966 28.4048 40.7404 28.2634C40.5141 28.126 40.3294 27.9295 40.2061 27.695L32.7311 12.4339H35.9385L41.4929 23.833L47.0741 12.4339H50.2656Z" fill="white"/>
<path d="M67.336 19.0552C67.3445 19.6488 67.2628 20.2402 67.0935 20.8092C66.9461 21.2944 66.725 21.7541 66.438 22.1721C66.1725 22.5547 65.8509 22.8951 65.484 23.1817C65.1361 23.4543 64.7568 23.6842 64.3544 23.8666C63.6245 24.1942 62.8348 24.3669 62.035 24.3739H55.5541V21.5049H62.035C62.3771 21.4813 62.7135 21.4051 63.0325 21.2788C63.3163 21.1655 63.5757 20.9987 63.7967 20.7874C64.0125 20.5768 64.1815 20.3228 64.2925 20.0423C64.4143 19.7277 64.4742 19.3926 64.4689 19.0552V17.7526C64.4367 17.4127 64.3588 17.0787 64.2373 16.7597C64.129 16.4735 63.9663 16.2111 63.7582 15.987C63.5512 15.7705 63.3015 15.5994 63.0249 15.4846C62.71 15.3577 62.3727 15.2957 62.0333 15.3021H55.5767C55.1943 15.3021 54.9039 15.4015 54.7055 15.6002C54.507 15.7989 54.4081 16.0857 54.4086 16.4608V28.2585H51.5432V16.4616C51.5432 15.7266 51.6773 15.1012 51.9454 14.5855C52.1872 14.103 52.5293 13.678 52.9487 13.3389C53.337 13.0289 53.78 12.7949 54.2548 12.6491C54.6753 12.5138 55.1134 12.4413 55.555 12.4339H62.0358C62.6256 12.4265 63.2129 12.5112 63.7766 12.6851C64.2599 12.8352 64.7177 13.0576 65.1345 13.3448C65.516 13.6093 65.8545 13.9312 66.1378 14.2992C66.4068 14.6496 66.636 15.029 66.821 15.4302C66.9966 15.811 67.1279 16.2107 67.2123 16.6215C67.2898 16.9936 67.3304 17.3725 67.3335 17.7526L67.336 19.0552Z" fill="white"/>
</svg>
